<svg width="864" height="850" viewBox="0 0 864 850" fill="none" xmlns="http://www.w3.org/2000/svg">
<g opacity="0.501199">
<path d="M538.798 693.159C526.175 698.005 511.991 691.69 507.145 679.066C502.3 666.443 508.615 652.259 521.238 647.414C533.862 642.568 548.045 648.883 552.891 661.506C557.737 674.13 551.422 688.313 538.798 693.159Z" fill="#FF005D"/>
</g>
<g opacity="0.501199">
<path d="M155.145 393.677C163.662 400.331 165.172 412.63 158.518 421.147C151.864 429.664 139.565 431.174 131.048 424.52" stroke="#FF4B3D" stroke-width="10.5" stroke-miterlimit="10"/>
</g>
<g opacity="0.501199">
<path d="M276.915 640.824C286.545 635.917 298.331 639.746 303.238 649.376C308.144 659.006 304.315 670.791 294.685 675.698" stroke="#06BC5C" stroke-width="10.5" stroke-miterlimit="10"/>
</g>
<g opacity="0.501199">
<path d="M162.944 488.39L173.834 497.557C174.148 497.821 174.531 497.991 174.938 498.043L189.053 499.886C190.735 500.106 191.509 502.099 190.417 503.397L181.25 514.287C180.986 514.601 180.816 514.983 180.763 515.391L178.92 529.505C178.701 531.187 176.708 531.962 175.41 530.869L164.52 521.702C164.206 521.438 163.823 521.269 163.416 521.216L149.301 519.373C147.619 519.153 146.845 517.161 147.937 515.863L157.104 504.972C157.369 504.659 157.538 504.276 157.591 503.869L159.434 489.754C159.653 488.072 161.646 487.297 162.944 488.39Z" fill="#F5B401"/>
</g>
<g opacity="0.501199">
<path d="M696.703 330.879L685.813 321.712C685.5 321.448 685.117 321.278 684.709 321.225L670.595 319.382C668.913 319.163 668.138 317.17 669.231 315.872L678.398 304.982C678.662 304.668 678.831 304.285 678.884 303.878L680.727 289.764C680.947 288.081 682.939 287.307 684.237 288.4L695.128 297.566C695.441 297.831 695.824 298 696.231 298.053L710.346 299.896C712.028 300.116 712.803 302.108 711.71 303.406L702.543 314.296C702.279 314.61 702.109 314.993 702.057 315.4L700.214 329.515C699.994 331.197 698.002 331.972 696.703 330.879Z" fill="#F5B401"/>
</g>
<g opacity="0.649082">
<path d="M139.528 327.188L157.324 292.261L192.252 310.057L174.455 344.985L139.528 327.188Z" fill="#00FFC8"/>
</g>
<g opacity="0.649082">
<path d="M537.272 127.421L570.515 148.194L549.743 181.438L516.499 160.665L537.272 127.421Z" fill="#00FFC8"/>
</g>
<g opacity="0.649082">
<path d="M306.187 142.494L353.517 155.176" stroke="#00A1FF" stroke-width="10.5" stroke-miterlimit="10"/>
</g>
<g opacity="0.501199">
<path d="M640.84 191.61C650.566 201.003 650.837 216.527 641.444 226.253C632.051 235.98 616.528 236.251 606.801 226.858C597.075 217.465 596.804 201.942 606.197 192.215C615.59 182.488 631.113 182.217 640.84 191.61Z" fill="#FF005D"/>
</g>
<g opacity="0.501199">
<path d="M247.122 204.03C248.44 214.758 240.811 224.523 230.084 225.84C219.356 227.157 209.592 219.528 208.274 208.8" stroke="#FF4B3D" stroke-width="10.5" stroke-miterlimit="10"/>
</g>
<g opacity="0.501199">
<path d="M704.084 451.074C695.567 444.42 694.056 432.121 700.71 423.604C707.364 415.087 719.664 413.577 728.181 420.232" stroke="#06BC5C" stroke-width="10.5" stroke-miterlimit="10"/>
</g>
<g opacity="0.501199">
<path d="M614.099 618.789L617.804 605.045C617.911 604.649 617.903 604.231 617.779 603.839L613.484 590.268C612.972 588.651 614.451 587.107 616.089 587.549L629.833 591.254C630.229 591.361 630.648 591.353 631.039 591.229L644.61 586.934C646.227 586.422 647.772 587.9 647.33 589.539L643.624 603.283C643.517 603.679 643.526 604.097 643.65 604.489L647.944 618.06C648.456 619.677 646.978 621.221 645.339 620.78L631.596 617.074C631.2 616.967 630.781 616.975 630.39 617.099L616.818 621.394C615.201 621.906 613.657 620.428 614.099 618.789Z" fill="#F5B401"/>
</g>
<g opacity="0.501199">
<path d="M447.018 132.295L434.679 139.393C434.324 139.598 434.034 139.9 433.845 140.264L427.285 152.897C426.504 154.403 424.366 154.449 423.52 152.978L416.422 140.64C416.218 140.284 415.916 139.994 415.551 139.805L402.918 133.246C401.413 132.464 401.366 130.327 402.837 129.48L415.176 122.382C415.531 122.178 415.822 121.876 416.011 121.512L422.57 108.878C423.352 107.373 425.489 107.326 426.335 108.797L433.433 121.136C433.638 121.492 433.939 121.782 434.304 121.971L446.937 128.53C448.443 129.312 448.489 131.449 447.018 132.295Z" fill="#F5B401"/>
</g>
<g opacity="0.649082">
<path d="M425.377 711.913L387.034 703.763L395.184 665.42L433.527 673.57L425.377 711.913Z" fill="#00FFC8"/>
</g>
<g opacity="0.649082">
<path d="M712.517 517.095L691.744 550.338L658.501 529.566L679.273 496.322L712.517 517.095Z" fill="#00FFC8"/>
</g>
<g opacity="0.649082">
<path d="M224.823 621.348L219.701 572.616" stroke="#00A1FF" stroke-width="10.5" stroke-miterlimit="10"/>
</g>
<g opacity="0.01">
<path d="M431.729 0C445.251 0 456.229 10.9784 456.229 24.5C456.229 38.0215 445.251 49 431.729 49C418.208 49 407.229 38.0215 407.229 24.5C407.229 10.9784 418.208 0 431.729 0Z" fill="#FF005D"/>
</g>
<g opacity="0.01">
<path d="M790.083 585.328C782.131 572.094 786.413 554.917 799.647 546.965C812.882 539.013 830.059 543.296 838.011 556.531" stroke="#FF4B3D" stroke-width="15" stroke-miterlimit="10"/>
</g>
<g opacity="0.01">
<path d="M754.206 193.371C738.851 194.985 725.093 183.845 723.479 168.489C721.865 153.134 733.006 139.377 748.361 137.763" stroke="#06BC5C" stroke-width="15" stroke-miterlimit="10"/>
</g>
<g opacity="0.01">
<path d="M828.169 455.018L818.338 437.217C818.055 436.704 817.631 436.282 817.115 436.003L799.234 426.319C797.103 425.165 797.09 422.111 799.212 420.939L817.013 411.108C817.526 410.825 817.948 410.401 818.227 409.885L827.911 392.004C829.065 389.873 832.119 389.86 833.291 391.982L843.122 409.783C843.405 410.296 843.829 410.718 844.345 410.997L862.226 420.681C864.357 421.835 864.37 424.889 862.248 426.061L844.447 435.892C843.934 436.175 843.512 436.599 843.233 437.115L833.549 454.996C832.395 457.127 829.341 457.14 828.169 455.018Z" fill="#F5B401"/>
</g>
<g opacity="0.01">
<path d="M35.6629 391.828L45.4939 409.629C45.7769 410.142 46.2009 410.564 46.7169 410.843L64.5979 420.527C66.7289 421.681 66.7419 424.735 64.6199 425.907L46.8189 435.738C46.3059 436.021 45.8839 436.445 45.6049 436.961L35.9209 454.842C34.7669 456.973 31.7129 456.986 30.5409 454.864L20.7099 437.063C20.4269 436.55 20.0029 436.128 19.4869 435.849L1.6059 426.165C-0.525097 425.011 -0.538098 421.957 1.5839 420.785L19.3849 410.954C19.8979 410.671 20.3199 410.247 20.5989 409.731L30.2829 391.85C31.4369 389.719 34.4909 389.706 35.6629 391.828Z" fill="#F5B401"/>
</g>
<g opacity="0.01">
<path d="M776.925 682.044L735.309 719.516L697.838 677.9L739.454 640.428L776.925 682.044Z" fill="#00FFC8"/>
</g>
<g opacity="0.01">
<path d="M144.083 744.849L110.381 700.125L155.105 666.423L188.807 711.147L144.083 744.849Z" fill="#00FFC8"/>
</g>
<g opacity="0.01">
<path d="M460.046 843.073L403.415 801.928" stroke="#00A1FF" stroke-width="15" stroke-miterlimit="10"/>
</g>
<g opacity="0.01">
<path d="M48.3851 601.731C42.6707 589.477 47.9808 574.887 60.2355 569.173C72.4902 563.458 87.0797 568.768 92.7942 581.023C98.5086 593.278 93.1985 607.867 80.9438 613.582C68.6891 619.296 54.0996 613.986 48.3851 601.731Z" fill="#FF005D"/>
</g>
<g opacity="0.01">
<path d="M570.322 791.169C574.057 776.188 589.231 767.07 604.212 770.805C619.194 774.541 628.31 789.715 624.575 804.696" stroke="#FF4B3D" stroke-width="15" stroke-miterlimit="10"/>
</g>
<g opacity="0.01">
<path d="M87.3544 227.747C95.3066 240.981 91.0247 258.158 77.79 266.11C64.5554 274.063 47.3789 269.779 39.4268 256.545" stroke="#06BC5C" stroke-width="15" stroke-miterlimit="10"/>
</g>
<g opacity="0.01">
<path d="M293.229 50.136L281.251 66.5689C280.905 67.0422 280.702 67.6048 280.667 68.1904L279.447 88.4887C279.302 90.9078 276.54 92.2102 274.581 90.7823L258.148 78.8039C257.675 78.4586 257.112 78.2553 256.526 78.2205L236.228 77.0007C233.809 76.8554 232.507 74.093 233.934 72.134L245.913 55.7011C246.258 55.2278 246.461 54.6652 246.496 54.0796L247.716 33.7813C247.861 31.3623 250.624 30.0598 252.583 31.4877L269.016 43.4661C269.489 43.8114 270.052 44.0147 270.637 44.0495L290.935 45.2693C293.355 45.4146 294.657 48.177 293.229 50.136Z" fill="#F5B401"/>
</g>
<g opacity="0.01">
<path d="M266.999 784.504L287.089 781.354C287.668 781.263 288.209 781.009 288.648 780.62L303.864 767.129C305.677 765.522 308.551 766.554 308.927 768.949L312.076 789.039C312.167 789.617 312.421 790.159 312.811 790.598L326.301 805.813C327.909 807.627 326.877 810.501 324.482 810.876L304.392 814.026C303.813 814.117 303.271 814.371 302.833 814.76L287.617 828.251C285.804 829.859 282.93 828.826 282.554 826.431L279.404 806.342C279.314 805.763 279.06 805.221 278.67 804.782L265.18 789.567C263.572 787.754 264.604 784.879 266.999 784.504Z" fill="#F5B401"/>
</g>
<g opacity="0.01">
<path d="M592.629 22.4893L639.594 52.9891L609.094 99.9547L562.129 69.4549L592.629 22.4893Z" fill="#00FFC8"/>
</g>
<g opacity="0.01">
<path d="M109.856 135.328L154.58 101.626L188.281 146.35L143.558 180.052L109.856 135.328Z" fill="#00FFC8"/>
</g>
<g opacity="0.01">
<path d="M813.777 245.99L795.66 313.604" stroke="#00A1FF" stroke-width="15" stroke-miterlimit="10"/>
</g>
<path d="M431.729 231C537.97 231 624.229 317.259 624.229 423.5C624.229 529.741 537.97 616 431.729 616C325.489 616 239.229 529.741 239.229 423.5C239.229 317.259 325.489 231 431.729 231Z" fill="#34B233"/>
<path d="M505.971 368.392L406.623 467.741L363.489 424.607" stroke="white" stroke-width="28" stroke-linecap="round" stroke-linejoin="round"/>
</svg>
